<svg width="103" height="53" viewBox="0 0 103 53" fill="none" xmlns="http://www.w3.org/2000/svg">
<path d="M23.0902 50.7489C28.3604 50.7489 32.6326 46.4766 32.6326 41.2065C32.6326 35.9363 28.3604 31.6641 23.0902 31.6641C17.8201 31.6641 13.5479 35.9363 13.5479 41.2065C13.5479 46.4766 17.8201 50.7489 23.0902 50.7489Z" stroke="#010DB6" stroke-width="3" stroke-miterlimit="10"/>
<path d="M85.7211 50.7489C90.9912 50.7489 95.2635 46.4766 95.2635 41.2065C95.2635 35.9363 90.9912 31.6641 85.7211 31.6641C80.451 31.6641 76.1787 35.9363 76.1787 41.2065C76.1787 46.4766 80.451 50.7489 85.7211 50.7489Z" stroke="#010DB6" stroke-width="3" stroke-miterlimit="10"/>
<path d="M5.53516 38.6964V33.7075C5.53516 32.4378 6.1945 31.2556 7.2788 30.5911C8.36311 29.9266 9.02244 28.747 9.02244 27.4747V2H57.095L69.0224 17.5975H91.4991C95.705 17.5975 99.115 21.0075 99.115 25.2134V28.0568C99.115 29.5764 97.8839 30.8101 96.3618 30.8101C99.2 30.8101 101.5 33.11 101.5 35.9483V38.7015" stroke="#010DB6" stroke-width="3" stroke-miterlimit="10"/>
<path d="M1.5 6.40625V27.5077" stroke="#010DB6" stroke-width="3" stroke-miterlimit="10"/>
<path d="M35.2607 2V19.063H58.7471" stroke="#010DB6" stroke-width="3" stroke-miterlimit="10"/>
<path d="M91.9587 26.0352H80.7834C77.9014 26.0352 75.2022 27.4517 73.5668 29.8264L68.3332 37.4113C66.6978 39.7834 63.9986 41.2025 61.1166 41.2025H37.8311" stroke="#010DB6" stroke-width="3" stroke-miterlimit="10"/>
</svg>
