<svg width="103" height="73" viewBox="0 0 103 73" fill="none" xmlns="http://www.w3.org/2000/svg">
<path d="M82.9091 71.242C89.1406 71.242 94.1922 66.1904 94.1922 59.9589C94.1922 53.7274 89.1406 48.6758 82.9091 48.6758C76.6776 48.6758 71.626 53.7274 71.626 59.9589C71.626 66.1904 76.6776 71.242 82.9091 71.242Z" stroke="#010DB6" stroke-width="3" stroke-miterlimit="10"/>
<path d="M21.7567 71.242C27.9882 71.242 33.0398 66.1904 33.0398 59.9589C33.0398 53.7274 27.9882 48.6758 21.7567 48.6758C15.5252 48.6758 10.4736 53.7274 10.4736 59.9589C10.4736 66.1904 15.5252 71.242 21.7567 71.242Z" stroke="#010DB6" stroke-width="3" stroke-miterlimit="10"/>
<path d="M7.1416 41.2417H69.7053V1.75391H89.4492L101.5 28.1651V55.0891C101.5 57.7809 99.318 59.9598 96.6293 59.9598H94.1924" stroke="#010DB6" stroke-width="3" stroke-miterlimit="10"/>
<path d="M10.4736 59.9587H9.19302C4.94399 59.9587 1.5 56.5148 1.5 52.2657V22.7773H61.2445" stroke="#010DB6" stroke-width="3" stroke-miterlimit="10"/>
<path d="M33.04 59.9609H71.6295" stroke="#010DB6" stroke-width="3" stroke-miterlimit="10"/>
<path d="M38.9365 50.4688H65.0897" stroke="#010DB6" stroke-width="3" stroke-miterlimit="10"/>
<path d="M77.1406 10.7266V28.419H101.5" stroke="#010DB6" stroke-width="3" stroke-miterlimit="10"/>
</svg>
