<svg width="124" height="61" viewBox="0 0 124 61" fill="none" xmlns="http://www.w3.org/2000/svg">
<path d="M35.4972 58.6828C38.3509 58.2238 40.2922 55.5383 39.8332 52.6846C39.3742 49.8309 36.6888 47.8896 33.8351 48.3486C30.9814 48.8076 29.0401 51.4931 29.4991 54.3468C29.9581 57.2005 32.6435 59.1418 35.4972 58.6828Z" stroke="#010DB6" stroke-width="3" stroke-miterlimit="10"/>
<path d="M28.3981 47.0273C28.3981 47.0273 25.4854 47.8766 25.4854 56.0078" stroke="#010DB6" stroke-width="3" stroke-miterlimit="10"/>
<path d="M13.2275 49.6953V54.5506" stroke="#010DB6" stroke-width="3" stroke-miterlimit="10"/>
<path d="M25.7601 52.1211H13.2275" stroke="#010DB6" stroke-width="3" stroke-miterlimit="10"/>
<path d="M114.081 53.5156H122" stroke="#010DB6" stroke-width="3" stroke-miterlimit="10"/>
<path d="M49.5737 58.6108C52.3886 57.9544 54.1385 55.1403 53.4821 52.3253C52.8257 49.5104 50.0115 47.7605 47.1966 48.4169C44.3816 49.0733 42.6317 51.8875 43.2881 54.7024C43.9446 57.5174 46.7587 59.2673 49.5737 58.6108Z" stroke="#010DB6" stroke-width="3" stroke-miterlimit="10"/>
<path d="M106.444 58.6773C109.298 58.2142 111.235 55.5259 110.772 52.6728C110.309 49.8197 107.621 47.8821 104.768 48.3452C101.914 48.8082 99.9769 51.4965 100.44 54.3496C100.903 57.2028 103.591 59.1403 106.444 58.6773Z" stroke="#010DB6" stroke-width="3" stroke-miterlimit="10"/>
<path d="M97.3336 52.1211H56.3125" stroke="#010DB6" stroke-width="3" stroke-miterlimit="10"/>
<path d="M93.2383 44.2362V19.3867H118.481C119.226 19.3867 119.892 19.8577 120.142 20.5594L120.965 22.884C121.116 23.3095 120.8 23.7559 120.348 23.7559H108.165V30.7825C108.165 31.9987 108.856 33.109 109.945 33.6461L113.849 35.5735C114.66 35.9745 115.173 36.7991 115.173 37.7032V39.867" stroke="#010DB6" stroke-width="3" stroke-miterlimit="10"/>
<path d="M119.178 23.7539V32.7816C119.178 33.6839 119.621 34.5274 120.362 35.04C121.103 35.5526 121.546 36.3962 121.546 37.2984V50.2413H112.989" stroke="#010DB6" stroke-width="3" stroke-miterlimit="10"/>
<path d="M112.99 15.1989C112.99 15.1989 105.253 7.64453 93.2383 7.64453V15.5639" stroke="#010DB6" stroke-width="3" stroke-miterlimit="10"/>
<path d="M2.00028 43.5078L89.5049 43.5078V2.00063L2.00028 2.00063V43.5078Z" stroke="#010DB6" stroke-width="3" stroke-miterlimit="10"/>
<path d="M84.772 13.3203H7.85742" stroke="#010DB6" stroke-width="3" stroke-miterlimit="10"/>
<path d="M84.772 22.75H7.85742" stroke="#010DB6" stroke-width="3" stroke-miterlimit="10"/>
<path d="M84.772 32.1875H7.85742" stroke="#010DB6" stroke-width="3" stroke-miterlimit="10"/>
</svg>
