<svg width="103" height="61" viewBox="0 0 103 61" fill="none" xmlns="http://www.w3.org/2000/svg">
<path d="M82.6198 58.1501C85.8037 57.4138 87.7879 54.2359 87.0517 51.0519C86.3154 47.868 83.1375 45.8837 79.9535 46.62C76.7696 47.3563 74.7853 50.5342 75.5216 53.7182C76.2579 56.9021 79.4358 58.8863 82.6198 58.1501Z" stroke="#010DB6" stroke-width="3" stroke-miterlimit="10"/>
<path d="M33.3636 56.7534C35.7783 54.5515 35.9508 50.809 33.7488 48.3944C31.5469 45.9797 27.8044 45.8072 25.3897 48.0091C22.9751 50.2111 22.8026 53.9536 25.0045 56.3682C27.2065 58.7829 30.9489 58.9554 33.3636 56.7534Z" stroke="#010DB6" stroke-width="3" stroke-miterlimit="10"/>
<path d="M71.6042 50.8711H38.1953" stroke="#010DB6" stroke-width="3" stroke-miterlimit="10"/>
<path d="M20.2138 50.8711H10.9336" stroke="#010DB6" stroke-width="3" stroke-miterlimit="10"/>
<path d="M89.4714 46.4626H101.419C101.419 46.4626 102.401 31.5257 92.9458 21.0999C92.3844 20.4804 91.5854 20.1289 90.7509 20.1289H74.8506V43.3295" stroke="#010DB6" stroke-width="3" stroke-miterlimit="10"/>
<path d="M80.1895 20.1289V30.7873C80.1895 31.6723 80.814 32.4335 81.6814 32.6054L93.0579 34.8635C94.4107 35.1316 95.3843 36.32 95.3843 37.6982V38.8057" stroke="#010DB6" stroke-width="3" stroke-miterlimit="10"/>
<path d="M102 50.8711H90.6309" stroke="#010DB6" stroke-width="3" stroke-miterlimit="10"/>
<path d="M2.00002 42.4023L70.4463 42.4023V2.2621L2.00002 2.2621V42.4023Z" stroke="#010DB6" stroke-width="3" stroke-miterlimit="10"/>
</svg>
