<svg width="124" height="38" viewBox="0 0 124 38" fill="none" xmlns="http://www.w3.org/2000/svg">
<path d="M5.94097 6.19079H121.211C121.79 6.19079 122.172 5.585 121.922 5.06235L120.612 2.32374C120.481 2.05054 120.204 1.875 119.9 1.875H2V29.6452L13.4454 32.6478H29.7702" stroke="#010DB6" stroke-width="3" stroke-miterlimit="10"/>
<path d="M89.2494 32.6484H41.7783" stroke="#010DB6" stroke-width="3" stroke-miterlimit="10"/>
<path d="M101.635 32.6484H121.712V22.8937C121.712 22.1717 121.425 21.4788 120.915 20.968C120.404 20.4573 120.117 19.7644 120.117 19.0424V6.19141" stroke="#010DB6" stroke-width="3" stroke-miterlimit="10"/>
<path d="M37.9455 35.0155C39.9219 34.0008 40.7016 31.576 39.6869 29.5996C38.6723 27.6231 36.2475 26.8434 34.2711 27.8581C32.2946 28.8728 31.5149 31.2975 32.5296 33.274C33.5443 35.2504 35.969 36.0301 37.9455 35.0155Z" stroke="#010DB6" stroke-width="3" stroke-miterlimit="10"/>
<path d="M98.2855 34.2781C99.8565 32.7071 99.8565 30.1601 98.2855 28.5891C96.7145 27.0181 94.1675 27.0181 92.5965 28.5891C91.0255 30.1601 91.0255 32.7071 92.5965 34.2781C94.1675 35.8491 96.7145 35.8491 98.2855 34.2781Z" stroke="#010DB6" stroke-width="3" stroke-miterlimit="10"/>
<path d="M6.31445 20.9688H114.674L116.925 22.2345V25.0496" stroke="#010DB6" stroke-width="3" stroke-miterlimit="10"/>
<path d="M114.676 20.968V6.19141" stroke="#010DB6" stroke-width="3" stroke-miterlimit="10"/>
<path d="M87.373 6.19141V20.968" stroke="#010DB6" stroke-width="3" stroke-miterlimit="10"/>
<path d="M60.6357 6.19141V20.968" stroke="#010DB6" stroke-width="3" stroke-miterlimit="10"/>
<path d="M33.4766 6.19141V20.968" stroke="#010DB6" stroke-width="3" stroke-miterlimit="10"/>
</svg>
