<svg width="104" height="47" viewBox="0 0 104 47" fill="none" xmlns="http://www.w3.org/2000/svg">
<path d="M29.0919 43.7361C31.9618 43.0585 33.7389 40.1826 33.0613 37.3127C32.3836 34.4428 29.5077 32.6656 26.6378 33.3433C23.7679 34.021 21.9908 36.8968 22.6684 39.7667C23.3461 42.6366 26.222 44.4138 29.0919 43.7361Z" stroke="#010DB6" stroke-width="3" stroke-miterlimit="10"/>
<path d="M92.4576 42.7882C94.8023 40.9999 95.2534 37.6495 93.4651 35.3048C91.6769 32.9601 88.3265 32.509 85.9818 34.2973C83.6371 36.0855 83.186 39.4359 84.9742 41.7806C86.7624 44.1253 90.1129 44.5764 92.4576 42.7882Z" stroke="#010DB6" stroke-width="3" stroke-miterlimit="10"/>
<path d="M80.9528 38.543H36.5547" stroke="#010DB6" stroke-width="3" stroke-miterlimit="10"/>
<path d="M19.8006 38.5433H2V2H70.3933C72.9673 2 75.4021 3.15972 77.0253 5.15715L86.9819 17.4115C87.6934 18.2884 88.6464 18.9389 89.7213 19.2849L98.1114 21.9873C99.53 22.4442 100.561 23.6714 100.768 25.1444L101.963 33.6324C102.176 35.1512 101.464 36.6503 100.152 37.4445L98.3355 38.5433" stroke="#010DB6" stroke-width="3" stroke-miterlimit="10"/>
<path d="M83.0461 21.754L82.0061 20.0198C81.3511 18.9297 80.174 18.2639 78.9033 18.2639H72.0298C69.4884 18.2639 67.1994 16.7256 66.2399 14.3735L64.4579 10.0023C64.0009 8.8817 64.8256 7.65234 66.0375 7.65234H79.0556" stroke="#010DB6" stroke-width="3" stroke-miterlimit="10"/>
</svg>
