<svg width="104" height="83" viewBox="0 0 104 83" fill="none" xmlns="http://www.w3.org/2000/svg">
<path d="M72.1861 79.9902C79.0041 78.3803 83.2262 71.548 81.6162 64.73C80.0063 57.9119 73.174 53.6899 66.356 55.2998C59.5379 56.9097 55.3159 63.742 56.9258 70.5601C58.5357 77.3781 65.368 81.6002 72.1861 79.9902Z" stroke="#010DB6" stroke-width="3" stroke-miterlimit="10"/>
<path d="M70.4936 72.8257C73.3549 72.1501 75.1267 69.2829 74.451 66.4216C73.7754 63.5604 70.9082 61.7886 68.047 62.4642C65.1857 63.1398 63.4139 66.007 64.0895 68.8683C64.7652 71.7295 67.6324 73.5013 70.4936 72.8257Z" stroke="#010DB6" stroke-width="3" stroke-miterlimit="10"/>
<path d="M2 56.2461V65.2023H56.5827" stroke="#010DB6" stroke-width="3" stroke-miterlimit="10"/>
<path d="M81.9561 65.2019H101.997V19.2531C101.997 9.77389 94.3133 2.08984 84.834 2.08984H29.8244C20.3452 2.08984 12.6611 9.77389 12.6611 19.2531V65.2019" stroke="#010DB6" stroke-width="3" stroke-miterlimit="10"/>
<path d="M46.7761 65.2029V24.9055C46.7761 21.4904 44.0083 18.7227 40.5932 18.7227H31.637C28.2218 18.7227 25.4541 21.4904 25.4541 24.9055V65.2029" stroke="#010DB6" stroke-width="3" stroke-miterlimit="10"/>
<path d="M102 44.7344H46.7754" stroke="#010DB6" stroke-width="3" stroke-miterlimit="10"/>
<path d="M25.4537 44.7344H12.6611" stroke="#010DB6" stroke-width="3" stroke-miterlimit="10"/>
<path d="M60.6348 34.5H85.5811V14.4587L60.6348 14.4587V34.5Z" stroke="#010DB6" stroke-width="3" stroke-miterlimit="10"/>
<path d="M85.5801 20.6367H60.6338" stroke="#010DB6" stroke-width="3" stroke-miterlimit="10"/>
<path d="M85.5801 28.1016H60.6338" stroke="#010DB6" stroke-width="3" stroke-miterlimit="10"/>
</svg>
