<svg width="101" height="39" viewBox="0 0 101 39" fill="none" xmlns="http://www.w3.org/2000/svg">
<path d="M1.99995 27.4258L98.9844 27.4258V2.15113L1.99995 2.15113V27.4258Z" stroke="#010DB6" stroke-width="3" stroke-miterlimit="10"/>
<path d="M45.5971 36.8484C47.3469 36.8484 48.7654 35.4299 48.7654 33.6801C48.7654 31.9302 47.3469 30.5117 45.5971 30.5117C43.8472 30.5117 42.4287 31.9302 42.4287 33.6801C42.4287 35.4299 43.8472 36.8484 45.5971 36.8484Z" stroke="#010DB6" stroke-width="3" stroke-miterlimit="10"/>
<path d="M82.7367 36.8484C84.4865 36.8484 85.9051 35.4299 85.9051 33.6801C85.9051 31.9302 84.4865 30.5117 82.7367 30.5117C80.9869 30.5117 79.5684 31.9302 79.5684 33.6801C79.5684 35.4299 80.9869 36.8484 82.7367 36.8484Z" stroke="#010DB6" stroke-width="3" stroke-miterlimit="10"/>
<path d="M91.0551 36.8484C92.8049 36.8484 94.2234 35.4299 94.2234 33.6801C94.2234 31.9302 92.8049 30.5117 91.0551 30.5117C89.3052 30.5117 87.8867 31.9302 87.8867 33.6801C87.8867 35.4299 89.3052 36.8484 91.0551 36.8484Z" stroke="#010DB6" stroke-width="3" stroke-miterlimit="10"/>
<path d="M37.1107 36.8484C38.8606 36.8484 40.2791 35.4299 40.2791 33.6801C40.2791 31.9302 38.8606 30.5117 37.1107 30.5117C35.3609 30.5117 33.9424 31.9302 33.9424 33.6801C33.9424 35.4299 35.3609 36.8484 37.1107 36.8484Z" stroke="#010DB6" stroke-width="3" stroke-miterlimit="10"/>
<path d="M28.7894 36.8484C30.5393 36.8484 31.9578 35.4299 31.9578 33.6801C31.9578 31.9302 30.5393 30.5117 28.7894 30.5117C27.0396 30.5117 25.6211 31.9302 25.6211 33.6801C25.6211 35.4299 27.0396 36.8484 28.7894 36.8484Z" stroke="#010DB6" stroke-width="3" stroke-miterlimit="10"/>
<path d="M25.1806 29.7422C25.1806 29.7422 23.3623 30.1281 23.3623 35.1422" stroke="#010DB6" stroke-width="3" stroke-miterlimit="10"/>
<path d="M13.168 31.1758V34.0407" stroke="#010DB6" stroke-width="3" stroke-miterlimit="10"/>
<path d="M23.5238 32.8281H13.168" stroke="#010DB6" stroke-width="3" stroke-miterlimit="10"/>
<path d="M95.6038 8.32422H5.67285" stroke="#010DB6" stroke-width="3" stroke-miterlimit="10"/>
<path d="M95.6038 14.7891H5.67285" stroke="#010DB6" stroke-width="3" stroke-miterlimit="10"/>
<path d="M95.6038 21.2578H5.67285" stroke="#010DB6" stroke-width="3" stroke-miterlimit="10"/>
<path d="M79.0732 29.7969C79.0732 29.7969 77.2549 30.4026 77.2549 35.142" stroke="#010DB6" stroke-width="3" stroke-miterlimit="10"/>
<path d="M77.4559 32.7031H50.4912" stroke="#010DB6" stroke-width="3" stroke-miterlimit="10"/>
</svg>
