<svg width="112" height="50" viewBox="0 0 112 50" fill="none" xmlns="http://www.w3.org/2000/svg">
<path d="M72.1861 46.9043C79.0041 45.2943 83.2262 38.4621 81.6162 31.644C80.0063 24.8259 73.174 20.6039 66.356 22.2139C59.5379 23.8238 55.3159 30.656 56.9258 37.4741C58.5357 44.2922 65.368 48.5142 72.1861 46.9043Z" stroke="#010DB6" stroke-width="3" stroke-miterlimit="10"/>
<path d="M70.4936 39.7358C73.3549 39.0602 75.1267 36.193 74.451 33.3318C73.7754 30.4705 70.9082 28.6987 68.047 29.3743C65.1857 30.05 63.4139 32.9172 64.0895 35.7784C64.7652 38.6397 67.6324 40.4115 70.4936 39.7358Z" stroke="#010DB6" stroke-width="3" stroke-miterlimit="10"/>
<path d="M2 23.1562V32.1125H56.5827" stroke="#010DB6" stroke-width="3" stroke-miterlimit="10"/>
<path d="M88.2395 32H110V10.1585C110 5.65257 101.657 2 91.3643 2H31.6357C21.3432 2 13 5.65257 13 10.1585V32" stroke="#010DB6" stroke-width="3" stroke-miterlimit="10"/>
</svg>
