<svg width="100" height="65" viewBox="0 0 100 65" fill="none" xmlns="http://www.w3.org/2000/svg">
<path d="M86.224 57.4098C93.8328 54.8879 97.9566 46.6753 95.4348 39.0665C92.9129 31.4576 84.7004 27.3338 77.0915 29.8556C69.4827 32.3775 65.3588 40.5901 67.8807 48.1989C70.4025 55.8078 78.6151 59.9316 86.224 57.4098Z" stroke="#010DB6" stroke-width="3" stroke-miterlimit="10"/>
<path d="M89.1346 43.6313C89.1346 47.7595 85.7878 51.1063 81.6596 51.1063C77.5314 51.1063 74.1846 47.7595 74.1846 43.6313C74.1846 39.5031 77.5314 36.1562 81.6596 36.1562C83.4367 36.1562 85.0686 36.7763 86.3525 37.8112" stroke="#010DB6" stroke-width="3" stroke-miterlimit="10"/>
<path d="M30.7894 53.8998C36.4575 48.2317 36.4575 39.0418 30.7894 33.3736C25.1212 27.7054 15.9313 27.7054 10.2631 33.3736C4.59496 39.0418 4.59496 48.2317 10.2631 53.8998C15.9313 59.568 25.1212 59.568 30.7894 53.8998Z" stroke="#010DB6" stroke-width="3" stroke-miterlimit="10"/>
<path d="M28.0037 43.6352C28.0037 47.7634 24.6569 51.1102 20.5287 51.1102C16.4005 51.1102 13.0537 47.7634 13.0537 43.6352C13.0537 39.507 16.4005 36.1602 20.5287 36.1602C22.3059 36.1602 23.9378 36.7802 25.2216 37.8151" stroke="#010DB6" stroke-width="3" stroke-miterlimit="10"/>
<path d="M33.5332 37.1867L40.3144 33.75" stroke="#010DB6" stroke-width="3" stroke-miterlimit="10"/>
<path d="M35.043 43.6328H43.304" stroke="#010DB6" stroke-width="3" stroke-miterlimit="10"/>
<path d="M83.2196 16.6942C83.2196 16.6942 78.6189 12.2548 67.4928 12.2548C52.5428 12.2548 51.6738 21.1796 51.6738 21.1796H43.8254C42.3733 21.1796 40.9304 20.7832 39.7525 19.935C32.3121 14.599 13.0518 10.0536 13.0518 10.0536C13.0518 10.0536 13.0518 11.561 13.0518 14.1103C13.0518 16.6596 26.7548 21.7582 35.0435 27.4376C43.3321 33.1171 43.6756 47.371 43.6756 47.371H60.1907C60.1907 20.5988 84.1808 22.86 84.1808 22.86C84.1808 10.344 72.3609 2 72.3609 2" stroke="#010DB6" stroke-width="3" stroke-miterlimit="10"/>
<path d="M57.4082 6.42969H63.4956C64.6412 6.42969 65.6623 7.14884 66.0472 8.22526L67.4901 12.252" stroke="#010DB6" stroke-width="3" stroke-miterlimit="10"/>
<path d="M77.2841 18.5148C77.2841 18.5148 53.0635 15.7327 53.0635 42.7354" stroke="#010DB6" stroke-width="3" stroke-miterlimit="10"/>
</svg>
