<svg width="103" height="53" fill="none" xmlns="http://www.w3.org/2000/svg"><path d="M23.09 50.749a9.542 9.542 0 009.543-9.543 9.542 9.542 0 00-9.543-9.542 9.542 9.542 0 00-9.542 9.542 9.542 9.542 0 009.542 9.543zm62.631 0a9.542 9.542 0 100-19.085 9.542 9.542 0 000 19.085z" stroke="#010DB6" stroke-width="3" stroke-miterlimit="10"/><path d="M5.535 38.696v-4.988c0-1.27.66-2.452 1.744-3.117a3.653 3.653 0 001.743-3.116V2h48.073l11.927 15.598H91.5a7.616 7.616 0 017.616 7.615v2.844a2.753 2.753 0 01-2.753 2.753c2.838 0 5.138 2.3 5.138 5.138v2.754M1.5 6.406v21.102" stroke="#010DB6" stroke-width="3" stroke-miterlimit="10"/><path d="M35.26 2v17.063h23.487m33.212 6.972H80.783a8.762 8.762 0 00-7.216 3.791l-5.234 7.585a8.769 8.769 0 01-7.216 3.791H37.83" stroke="#010DB6" stroke-width="3" stroke-miterlimit="10"/></svg>