<svg width="103" height="73" fill="none" xmlns="http://www.w3.org/2000/svg"><path d="M82.91 71.242c6.23 0 11.282-5.052 11.282-11.283 0-6.232-5.051-11.283-11.283-11.283-6.231 0-11.283 5.051-11.283 11.283 0 6.231 5.052 11.283 11.283 11.283zm-61.153 0c6.231 0 11.283-5.052 11.283-11.283 0-6.232-5.052-11.283-11.283-11.283-6.232 0-11.283 5.051-11.283 11.283 0 6.231 5.051 11.283 11.283 11.283z" stroke="#010DB6" stroke-width="3" stroke-miterlimit="10"/><path d="M7.142 41.242h62.563V1.754H89.45l12.05 26.411V55.09a4.87 4.87 0 01-4.87 4.87h-2.438" stroke="#010DB6" stroke-width="3" stroke-miterlimit="10"/><path d="M10.474 59.959H9.193A7.693 7.693 0 011.5 52.266V22.777h59.745M33.04 59.96h38.59m-32.693-9.491H65.09m12.05-39.742v17.692h24.36" stroke="#010DB6" stroke-width="3" stroke-miterlimit="10"/></svg>