<svg width="103" height="61" fill="none" xmlns="http://www.w3.org/2000/svg"><path d="M82.62 58.15a5.917 5.917 0 10-2.667-11.53 5.917 5.917 0 002.667 11.53zm-49.256-1.397a5.917 5.917 0 10-7.974-8.744 5.917 5.917 0 007.974 8.744zm38.24-5.882H38.195m-17.981 0h-9.28m78.537-4.408h11.948s.982-14.937-8.473-25.363a2.963 2.963 0 00-2.195-.971h-15.9v23.2" stroke="#010DB6" stroke-width="3" stroke-miterlimit="10"/><path d="M80.19 20.129v10.658c0 .885.624 1.647 1.491 1.818l11.377 2.259a2.89 2.89 0 012.326 2.834v1.108M102 50.871H90.63M2 42.402h68.446V2.262H2v40.14z" stroke="#010DB6" stroke-width="3" stroke-miterlimit="10"/></svg>