<svg width="124" height="61" fill="none" xmlns="http://www.w3.org/2000/svg"><path d="M35.497 58.683a5.234 5.234 0 10-1.662-10.334 5.234 5.234 0 001.662 10.334zm-7.099-11.656s-2.913.85-2.913 8.98m-12.258-6.312v4.856m12.533-2.43H13.227m100.854 1.395H122M49.574 58.61a5.234 5.234 0 10-2.378-10.193 5.234 5.234 0 002.378 10.194zm56.87.067a5.233 5.233 0 10-1.675-10.331 5.233 5.233 0 001.675 10.331zm-9.11-6.556H56.312m36.926-7.885v-24.85h25.243c.745 0 1.411.472 1.661 1.173l.823 2.325a.654.654 0 01-.617.872h-12.183v7.026c0 1.217.691 2.327 1.78 2.864l3.904 1.928a2.375 2.375 0 011.324 2.13v2.163" stroke="#010DB6" stroke-width="3" stroke-miterlimit="10"/><path d="M119.178 23.754v9.028c0 .902.443 1.745 1.184 2.258a2.746 2.746 0 011.184 2.258v12.943h-8.557m.001-35.042s-7.737-7.554-19.752-7.554v7.919M2 43.508h87.505V2H2v41.507zM84.772 13.32H7.857m76.915 9.43H7.857m76.915 9.438H7.857" stroke="#010DB6" stroke-width="3" stroke-miterlimit="10"/></svg>