<svg width="104" height="47" fill="none" xmlns="http://www.w3.org/2000/svg"><path d="M29.092 43.736a5.34 5.34 0 10-2.454-10.393 5.34 5.34 0 002.454 10.393zm63.366-.948a5.34 5.34 0 10-6.476-8.49 5.34 5.34 0 006.476 8.49zm-11.505-4.245H36.555" stroke="#010DB6" stroke-width="3" stroke-miterlimit="10"/><path d="M19.8 38.543H2V2h68.393a8.544 8.544 0 016.632 3.157l9.957 12.255a5.827 5.827 0 002.74 1.873l8.39 2.702a3.885 3.885 0 012.656 3.157l1.195 8.488a3.833 3.833 0 01-1.811 3.813l-1.817 1.098" stroke="#010DB6" stroke-width="3" stroke-miterlimit="10"/><path d="M83.046 21.754l-1.04-1.734a3.619 3.619 0 00-3.103-1.756H72.03a6.253 6.253 0 01-5.79-3.89l-1.782-4.372a1.706 1.706 0 011.58-2.35h13.018" stroke="#010DB6" stroke-width="3" stroke-miterlimit="10"/></svg>