<svg width="124" height="38" fill="none" xmlns="http://www.w3.org/2000/svg"><path d="M5.941 6.19h115.27a.789.789 0 00.711-1.128l-1.31-2.738a.79.79 0 00-.712-.449H2v27.77l11.445 3.003H29.77m59.48 0H41.777" stroke="#010DB6" stroke-width="3" stroke-miterlimit="10"/><path d="M101.635 32.648h20.077v-9.754c0-.722-.287-1.415-.797-1.926a2.723 2.723 0 01-.798-1.926V6.192M37.946 35.016a4.023 4.023 0 10-3.675-7.158 4.023 4.023 0 003.675 7.158zm60.339-.738a4.023 4.023 0 10-5.688-5.689 4.023 4.023 0 005.689 5.69z" stroke="#010DB6" stroke-width="3" stroke-miterlimit="10"/><path d="M6.314 20.969h108.36l2.251 1.265v2.816m-2.249-4.082V6.191m-27.303 0v14.777M60.636 6.191v14.777M33.477 6.191v14.777" stroke="#010DB6" stroke-width="3" stroke-miterlimit="10"/></svg>