<svg width="104" height="83" fill="none" xmlns="http://www.w3.org/2000/svg"><path d="M72.186 79.99c6.818-1.61 11.04-8.442 9.43-15.26-1.61-6.818-8.442-11.04-15.26-9.43-6.818 1.61-11.04 8.442-9.43 15.26 1.61 6.818 8.442 11.04 15.26 9.43z" stroke="#010DB6" stroke-width="3" stroke-miterlimit="10"/><path d="M70.494 72.826a5.323 5.323 0 10-2.447-10.362 5.323 5.323 0 002.447 10.362zM2 56.246v8.956h54.583" stroke="#010DB6" stroke-width="3" stroke-miterlimit="10"/><path d="M81.956 65.202h20.041V19.253c0-9.48-7.684-17.163-17.163-17.163h-55.01c-9.479 0-17.163 7.684-17.163 17.163v45.949" stroke="#010DB6" stroke-width="3" stroke-miterlimit="10"/><path d="M46.776 65.203V24.906a6.182 6.182 0 00-6.183-6.183h-8.956a6.182 6.182 0 00-6.183 6.183v40.297M102 44.734H46.775m-21.321 0H12.66M60.635 34.5H85.58V14.459H60.635V34.5zM85.58 20.637H60.634m24.946 7.465H60.634" stroke="#010DB6" stroke-width="3" stroke-miterlimit="10"/></svg>