<svg width="112" height="50" fill="none" xmlns="http://www.w3.org/2000/svg"><path d="M72.186 46.904c6.818-1.61 11.04-8.442 9.43-15.26-1.61-6.818-8.442-11.04-15.26-9.43-6.818 1.61-11.04 8.442-9.43 15.26 1.61 6.818 8.442 11.04 15.26 9.43z" stroke="#010DB6" stroke-width="3" stroke-miterlimit="10"/><path d="M70.494 39.736a5.323 5.323 0 10-2.447-10.361 5.323 5.323 0 002.447 10.36zM2 23.156v8.956h54.583" stroke="#010DB6" stroke-width="3" stroke-miterlimit="10"/><path d="M88.24 32H110V10.159C110 5.652 101.657 2 91.364 2H31.636C21.343 2 13 5.653 13 10.159V32" stroke="#010DB6" stroke-width="3" stroke-miterlimit="10"/></svg>