<svg width="101" height="39" fill="none" xmlns="http://www.w3.org/2000/svg"><path d="M2 27.426h96.984V2.15H2v25.275zm43.597 9.422a3.168 3.168 0 100-6.336 3.168 3.168 0 000 6.336zm37.14 0a3.168 3.168 0 100-6.336 3.168 3.168 0 000 6.336zm8.318 0a3.168 3.168 0 100-6.336 3.168 3.168 0 000 6.336zm-53.945 0a3.168 3.168 0 100-6.336 3.168 3.168 0 000 6.336zm-8.32 0a3.168 3.168 0 100-6.336 3.168 3.168 0 000 6.336zm-3.61-7.106s-1.818.386-1.818 5.4m-10.194-3.966v2.865m10.356-1.213H13.168M95.604 8.324H5.673m89.931 6.466H5.673m89.931 6.468H5.673m73.4 8.539s-1.818.606-1.818 5.345m.201-2.439H50.49" stroke="#010DB6" stroke-width="3" stroke-miterlimit="10"/></svg>