<svg width="124" height="39" fill="none" xmlns="http://www.w3.org/2000/svg"><path d="M2 27.426h96.984V2.15H2v25.275zm43.597 9.422a3.168 3.168 0 100-6.336 3.168 3.168 0 000 6.336zm37.14 0a3.168 3.168 0 100-6.336 3.168 3.168 0 000 6.336zm8.318 0a3.168 3.168 0 100-6.336 3.168 3.168 0 000 6.336zm21.095 0a3.168 3.168 0 100-6.335 3.168 3.168 0 000 6.335zm-75.04 0a3.168 3.168 0 100-6.336 3.168 3.168 0 000 6.336zm-8.32 0a3.168 3.168 0 100-6.336 3.168 3.168 0 000 6.336zm-3.61-7.106s-1.818.386-1.818 5.4m-10.194-3.966v2.865m10.356-1.213H13.168M95.604 8.324H5.673m89.931 6.466H5.673m89.931 6.468H5.673m73.4 8.539s-1.818.606-1.818 5.345m.201-2.439H50.49m56.798 0H95.936m8.761-4.944V12.66h15.053c.711 0 1.333.475 1.521 1.161l.245.9a.769.769 0 01-.742.97h-7.204v3.866a2.12 2.12 0 001.319 1.962l2.235.91c.55.224.908.759.908 1.352v1.554" stroke="#010DB6" stroke-width="3" stroke-miterlimit="10"/><path d="M120.511 15.691v6.227c.569 0 1.031.462 1.031 1.03v8.449h-5.108M122 33.68h-4.904m-.662-23.447s-4.244-4.518-12.068-4.518v4.518" stroke="#010DB6" stroke-width="3" stroke-miterlimit="10"/></svg>