<svg width="100" height="65" fill="none" xmlns="http://www.w3.org/2000/svg"><path d="M86.224 57.41c7.609-2.522 11.733-10.735 9.21-18.343-2.521-7.61-10.734-11.733-18.343-9.211-7.608 2.521-11.732 10.734-9.21 18.343 2.522 7.609 10.734 11.733 18.343 9.21zm2.911-13.779a7.475 7.475 0 11-2.782-5.82M30.79 53.9c5.668-5.668 5.668-14.858 0-20.526-5.669-5.669-14.859-5.669-20.527 0-5.668 5.668-5.668 14.858 0 20.526 5.668 5.668 14.858 5.668 20.526 0zm-2.786-10.265a7.475 7.475 0 11-2.782-5.82m8.311-.628l6.781-3.437m-5.271 9.883h8.261" stroke="#010DB6" stroke-width="3" stroke-miterlimit="10"/><path d="M83.22 16.694s-4.601-4.44-15.727-4.44c-14.95 0-15.82 8.926-15.82 8.926h-7.848c-1.452 0-2.895-.397-4.073-1.245-7.44-5.336-26.7-9.881-26.7-9.881v4.056c0 2.55 13.703 7.648 21.992 13.328 8.288 5.68 8.632 19.933 8.632 19.933H60.19c0-26.772 23.99-24.511 23.99-24.511C84.18 10.344 72.36 2 72.36 2" stroke="#010DB6" stroke-width="3" stroke-miterlimit="10"/><path d="M57.408 6.43h6.088c1.145 0 2.166.719 2.551 1.795l1.443 4.027m9.794 6.263s-24.22-2.782-24.22 24.22" stroke="#010DB6" stroke-width="3" stroke-miterlimit="10"/></svg>